# xmcd
#
# Track frame offsets: 
#        150
#        29768
#        44139
#        71058
#        87550
#        101327
#        122198
#        137863
#        157593
#        178939
#
# Disc length: 2611 seconds
#
# Revision: 0
# Processed by: cddbd v1.5.2PL0 Copyright (c) Steve Scherf et al.
# Submitted via: ExactAudioCopy v0.99pb3
#
DISCID=920a310a
DTITLE=Sammy Dee - Business Is Business
DYEAR=2006
DGENRE=Blues
TTITLE0=Behave Yourself
TTITLE1=Business Is Business
TTITLE2=Rode Too Hard
TTITLE3=Low Down Woman
TTITLE4=Too Late
TTITLE5=Moonshine
TTITLE6=Bop Til I Drop
TTITLE7=Sittin' In Limbo
TTITLE8=Dog Days
TTITLE9=Strat Struttin'
EXTD=
EXTT0=
EXTT1=
EXTT2=
EXTT3=
EXTT4=
EXTT5=
EXTT6=
EXTT7=
EXTT8=
EXTT9=
PLAYORDER=
